<?xml version="1.0" standalone="no"?>
<!DOCTYPE svg PUBLIC "-//W3C//DTD SVG 20010904//EN"
 "http://www.w3.org/TR/2001/REC-SVG-20010904/DTD/svg10.dtd">
<svg version="1.0" xmlns="http://www.w3.org/2000/svg"
 width="500.000000pt" height="500.000000pt" viewBox="0 0 500.000000 500.000000"
 preserveAspectRatio="xMidYMid meet">

<g transform="translate(0.000000,500.000000) scale(0.100000,-0.100000)"
fill="#000000" stroke="none">
<path d="M1373 3569 l-101 -21 10 -29 c16 -46 42 -57 141 -57 48 0 90 4 93 9
3 5 13 5 24 -1 27 -15 72 -12 98 5 19 14 24 14 51 0 35 -17 61 -51 61 -78 0
-15 5 -13 25 11 13 16 38 35 55 42 l31 13 -37 38 c-20 21 -60 48 -88 60 -73
32 -225 36 -363 8z"/>
<path d="M1822 3405 c-12 -9 -29 -32 -37 -52 -14 -33 -13 -44 21 -176 82 -327
179 -650 218 -725 10 -19 33 -43 52 -54 l34 -20 -30 -28 c-101 -94 -73 -263
55 -334 29 -17 28 -17 -65 -11 -112 7 -334 39 -374 55 -16 6 -31 9 -33 6 -8
-7 216 -76 312 -96 159 -33 285 -44 495 -44 343 0 588 39 858 136 46 17 82 32
80 33 -2 2 -48 -7 -103 -21 -210 -51 -564 -84 -885 -83 l-145 0 48 25 c27 14
59 42 75 64 31 45 27 44 257 93 236 52 222 50 229 22 10 -39 63 -92 111 -110
125 -48 264 78 226 205 -25 83 -90 130 -179 130 -60 0 -117 -37 -147 -95 -20
-39 -22 -40 -115 -58 -52 -10 -143 -29 -203 -42 -59 -14 -113 -25 -120 -25 -7
0 -18 23 -25 52 -19 81 -72 128 -169 148 -37 8 -59 7 -95 -4 -27 -8 -46 -11
-43 -6 2 4 25 13 50 19 51 13 120 2 170 -28 26 -15 42 -16 113 -9 302 29 586
111 686 199 89 78 136 220 136 414 0 117 -23 272 -45 302 -13 17 -26 12 -212
-84 -394 -203 -656 -294 -916 -321 -79 -8 -79 -8 -89 17 -10 27 -109 404 -125
476 -10 46 -34 56 -71 30z m1402 -153 c15 -46 24 -267 15 -364 -16 -173 -73
-253 -241 -337 -46 -23 -74 -36 -64 -29 135 91 211 172 245 262 18 50 21 78
21 225 0 150 -2 171 -19 192 -17 21 -22 22 -57 11 -21 -6 -40 -10 -42 -8 -6 6
102 66 120 66 9 0 19 -8 22 -18z m-81 -134 l5 -57 -90 -46 c-49 -26 -91 -45
-92 -43 -10 11 -26 103 -19 105 4 2 49 25 98 52 50 27 91 48 92 47 1 0 4 -27
6 -58z m-226 -118 c7 -36 7 -53 -1 -58 -20 -13 -108 -52 -116 -52 -7 0 -24 70
-25 103 0 9 94 55 116 56 12 1 19 -13 26 -49z m233 -29 l0 -49 -72 -41 c-40
-22 -76 -37 -80 -33 -3 4 -9 23 -13 43 l-7 36 84 46 c45 25 84 46 86 46 1 1 2
-21 2 -48z m-405 -38 c3 -27 5 -52 4 -58 -2 -15 -119 -59 -129 -49 -4 5 -11
32 -14 59 l-7 50 53 22 c79 33 85 31 93 -24z m-180 -60 c4 -27 7 -54 8 -62 1
-9 -23 -22 -67 -37 -38 -13 -70 -23 -72 -21 -1 1 -5 30 -9 63 l-7 62 44 15
c97 35 96 36 103 -20z m383 -11 l10 -43 -59 -29 c-32 -17 -63 -30 -67 -30 -8
0 -35 82 -29 85 36 18 133 62 134 61 1 -1 6 -21 11 -44z m-564 -38 c12 -91 13
-89 -61 -111 -38 -12 -71 -18 -75 -14 -4 3 -8 35 -9 71 l-3 64 65 17 c35 9 67
18 70 18 4 1 9 -20 13 -45z m747 -11 c-10 -42 -18 -53 -56 -75 l-44 -27 -11
40 c-6 23 -9 44 -6 47 11 11 121 69 125 66 2 -1 -2 -25 -8 -51z m-361 -10 c0
-16 3 -37 6 -49 5 -17 -4 -24 -62 -47 -52 -20 -70 -24 -76 -14 -7 11 -11 55
-6 75 1 7 116 61 131 62 4 0 7 -12 7 -27z m-575 -6 c4 -13 5 -45 3 -72 l-3
-49 -50 -12 c-27 -7 -50 -12 -50 -11 0 1 -11 31 -23 66 -12 35 -20 66 -17 69
5 5 102 30 122 31 7 1 15 -9 18 -22z m789 -73 c7 -30 5 -32 -59 -63 -36 -17
-68 -31 -70 -31 -5 0 -28 81 -23 84 2 1 32 16 68 33 69 33 73 32 84 -23z
m-392 -21 l3 -42 -69 -26 c-38 -14 -70 -24 -72 -22 -2 2 -7 23 -10 48 l-6 44
69 26 c37 14 71 23 74 20 4 -3 9 -25 11 -48z m-192 -47 c0 -19 2 -41 5 -49 4
-10 -13 -19 -66 -35 -83 -25 -91 -21 -87 43 3 38 4 40 58 56 83 26 90 25 90
-15z m402 -7 c3 -19 4 -37 0 -41 -9 -8 -135 -59 -138 -55 -2 1 -6 21 -10 43
l-6 41 63 26 c35 14 68 25 74 23 5 -1 13 -18 17 -37z m258 26 c-7 -9 -15 -13
-19 -10 -3 3 1 10 9 15 21 14 24 12 10 -5z m-60 -28 c0 -8 -12 -20 -27 -26
-35 -16 -113 -40 -113 -35 0 3 128 72 138 74 1 0 2 -6 2 -13z m-790 -62 c0
-37 -4 -55 -12 -55 -7 0 -22 -3 -34 -6 -18 -5 -24 2 -38 35 -22 56 -21 58 22
69 62 17 62 17 62 -43z m400 21 c0 -7 3 -27 6 -43 6 -29 4 -31 -39 -42 -25 -6
-62 -11 -81 -11 -33 0 -36 2 -36 29 0 26 6 32 53 49 28 11 59 22 67 25 24 9
30 8 30 -7z m-190 -80 c0 -21 -5 -24 -56 -28 -31 -3 -68 -2 -83 0 -22 5 -15 9
44 28 90 29 95 29 95 0z m683 -157 c28 -14 67 -50 67 -60 0 -5 -16 3 -36 16
-20 14 -42 25 -48 25 -6 0 -2 -6 9 -12 35 -19 55 -52 55 -91 0 -31 -7 -45 -31
-68 -51 -48 -125 -35 -154 28 -20 41 -13 77 18 112 25 27 4 19 -30 -12 -25
-22 -29 -17 -12 14 25 48 112 74 162 48z m-762 -57 c44 -47 53 -79 12 -40 -29
26 -65 48 -80 48 -4 -1 4 -7 18 -15 28 -15 59 -70 59 -105 0 -29 -26 -76 -52
-94 -13 -9 -43 -16 -71 -16 -40 0 -54 5 -77 29 -16 16 -32 41 -36 56 -11 43
13 103 49 126 28 18 29 20 7 14 -14 -4 -40 -21 -57 -38 -37 -35 -44 -24 -11
18 39 50 77 67 142 62 54 -3 62 -7 97 -45z"/>
<path d="M3010 2290 c-11 -11 -20 -30 -20 -42 1 -78 111 -86 118 -9 6 62 -55
94 -98 51z"/>
<path d="M2213 2323 c9 -2 23 -2 30 0 6 3 -1 5 -18 5 -16 0 -22 -2 -12 -5z"/>
<path d="M2204 2270 c-26 -10 -54 -48 -54 -71 0 -32 39 -69 74 -69 49 0 76 24
76 69 0 55 -48 90 -96 71z"/>
<path d="M3454 2094 c-72 -50 -361 -139 -564 -174 -160 -27 -418 -50 -590 -51
-124 -1 -138 -3 -95 -11 77 -15 475 -15 585 0 292 41 551 128 661 222 36 31
38 39 3 14z"/>
<path d="M3777 2085 c-60 -31 -147 -88 -147 -97 0 -4 10 -13 23 -19 28 -13
127 -171 127 -204 0 -32 9 -31 65 2 49 30 57 48 25 58 -11 4 -28 18 -37 32
-16 24 -16 26 3 36 40 22 84 75 84 101 0 83 -72 128 -143 91z m52 -71 c12 -15
21 -31 21 -37 0 -12 -40 -57 -51 -57 -4 0 -19 21 -34 47 -27 44 -27 47 -9 60
27 20 50 16 73 -13z"/>
<path d="M1133 2070 c-79 -48 -119 -175 -73 -233 28 -36 90 -67 132 -67 105 0
193 164 132 247 -24 33 -97 73 -134 73 -14 0 -39 -9 -57 -20z m127 -50 c25
-25 25 -43 1 -95 -24 -53 -74 -105 -100 -105 -23 0 -61 33 -61 53 0 26 52 117
82 142 36 30 52 31 78 5z"/>
<path d="M1393 1950 c8 -30 -68 -207 -95 -221 -26 -14 -22 -26 12 -44 42 -22
49 -19 49 18 -1 32 57 174 68 164 2 -3 20 -65 38 -138 33 -128 47 -158 70
-139 7 6 31 55 55 110 43 100 70 137 89 125 6 -3 11 -15 11 -25 0 -37 -52
-185 -73 -208 -13 -13 -17 -26 -11 -31 12 -12 207 -71 232 -71 15 0 22 9 27
31 9 38 -7 58 -30 39 -17 -14 -100 -9 -116 7 -12 12 45 196 66 213 27 22 16
39 -37 55 -28 8 -54 13 -56 10 -3 -3 -12 1 -21 9 -9 8 -28 18 -43 21 -26 7
-28 5 -28 -23 0 -16 -11 -54 -24 -82 l-25 -53 -10 39 c-5 22 -18 70 -27 107
-18 74 -34 92 -94 103 -31 7 -33 6 -27 -16z"/>
<path d="M3483 1930 c-101 -45 -109 -162 -17 -257 33 -36 47 -43 78 -43 67 0
146 55 160 111 10 44 -22 129 -64 171 -44 45 -88 50 -157 18z m92 -56 c32 -35
57 -103 53 -145 -2 -26 -9 -36 -31 -43 -37 -13 -55 -1 -89 60 -38 68 -45 110
-23 134 25 27 61 25 90 -6z"/>
<path d="M3283 1843 c-43 -15 -56 -39 -29 -49 14 -5 36 -54 36 -79 0 -11 -61
-35 -88 -35 -15 0 -33 68 -26 97 7 27 -12 30 -67 12 -50 -17 -55 -26 -32 -51
27 -29 77 -192 69 -223 -3 -13 -2 -26 2 -29 12 -7 112 26 112 36 0 5 -9 21
-20 36 -10 15 -22 39 -25 53 -6 24 -3 28 41 43 26 9 48 16 49 16 9 0 24 -85
19 -105 -7 -30 3 -32 69 -9 49 17 57 29 31 48 -21 16 -75 182 -72 221 4 36
-11 40 -69 18z"/>
<path d="M1948 1764 c-4 -3 -3 -15 2 -25 12 -22 -25 -206 -46 -230 -8 -8 -14
-20 -14 -26 0 -11 100 -34 113 -26 4 2 5 19 2 36 -8 42 30 208 50 223 19 14
19 30 1 37 -27 11 -101 18 -108 11z"/>
<path d="M2893 1749 c-47 -14 -76 -56 -69 -98 8 -52 34 -72 105 -80 34 -4 66
-12 72 -18 17 -17 6 -47 -23 -60 -31 -16 -55 -8 -63 19 -10 31 -59 21 -63 -14
-6 -50 62 -72 149 -48 72 20 104 77 76 135 -17 36 -60 55 -122 55 -56 0 -76
51 -29 72 24 11 28 9 53 -21 24 -30 30 -32 49 -22 22 12 28 36 14 57 -21 32
-84 42 -149 23z"/>
<path d="M2080 1729 c0 -6 4 -18 9 -27 13 -25 -8 -203 -27 -224 -22 -26 -8
-48 31 -48 42 0 49 7 36 32 -13 24 -2 181 13 176 5 -2 39 -52 76 -112 70 -114
96 -141 111 -118 4 8 14 67 21 132 13 128 29 163 56 125 17 -22 20 -210 4
-220 -5 -3 -10 -15 -10 -26 0 -19 6 -19 128 -17 l127 3 3 43 c4 48 -9 54 -43
22 -12 -11 -42 -23 -68 -26 l-47 -7 0 52 c0 43 3 51 18 51 10 0 27 -7 38 -15
37 -28 54 -19 54 29 0 51 -13 65 -39 42 -10 -9 -30 -16 -44 -16 -25 0 -27 3
-27 45 l0 45 38 0 c20 0 52 -9 70 -20 46 -28 54 -25 50 18 l-3 37 -165 2 c-91
1 -171 0 -177 -2 -10 -3 -10 -10 -2 -29 8 -17 9 -43 3 -82 l-9 -58 -58 96
c-53 88 -61 96 -95 102 -54 9 -72 7 -72 -5z"/>
<path d="M1784 1255 c-7 -18 3 -35 20 -35 21 0 40 -27 26 -35 -7 -4 -17 -2
-23 4 -17 17 -31 13 -17 -4 19 -23 54 -15 58 12 3 17 -3 24 -22 29 -14 3 -26
13 -26 21 0 11 7 13 26 9 17 -5 23 -3 19 4 -9 15 -55 12 -61 -5z"/>
<path d="M1980 1220 c0 -27 5 -50 10 -50 6 0 10 10 10 22 l0 21 23 -21 c32
-30 46 -28 17 3 -23 24 -23 25 -5 45 10 11 15 23 12 26 -4 4 -15 -4 -26 -17
l-20 -24 -1 23 c0 12 -4 22 -10 22 -5 0 -10 -22 -10 -50z"/>
<path d="M2267 1263 c-14 -14 -6 -34 18 -43 14 -5 25 -16 25 -25 0 -18 -26
-20 -33 -2 -2 6 -8 9 -12 4 -15 -14 13 -30 40 -23 32 8 31 36 -3 51 -32 14
-29 39 4 31 17 -5 23 -3 19 4 -7 11 -48 14 -58 3z"/>
<path d="M2394 1245 c-15 -23 -15 -27 0 -50 21 -32 59 -33 80 -3 20 28 20 43
0 62 -24 24 -61 20 -80 -9z m64 3 c17 -17 15 -43 -4 -59 -31 -26 -70 25 -44
56 15 18 32 19 48 3z"/>
<path d="M2540 1220 c0 -48 1 -50 28 -49 16 1 20 3 10 6 -14 3 -18 15 -18 49
0 24 -4 44 -10 44 -5 0 -10 -22 -10 -50z"/>
<path d="M2640 1237 c0 -48 20 -72 53 -63 25 6 27 10 25 54 -1 42 -2 43 -5 10
-8 -70 -53 -76 -53 -7 0 21 -4 39 -10 39 -5 0 -10 -15 -10 -33z"/>
<path d="M2788 1263 c7 -3 12 -23 12 -49 0 -24 5 -44 10 -44 6 0 10 20 10 44
0 34 4 46 18 49 9 3 -1 5 -23 5 -22 0 -34 -2 -27 -5z"/>
<path d="M2900 1220 c0 -27 5 -50 10 -50 6 0 10 23 10 50 0 28 -4 50 -10 50
-5 0 -10 -22 -10 -50z"/>
<path d="M2984 1245 c-15 -23 -15 -27 0 -50 21 -32 59 -33 80 -3 20 28 20 43
0 62 -24 24 -61 20 -80 -9z m64 3 c17 -17 15 -43 -4 -59 -31 -26 -70 25 -44
56 15 18 32 19 48 3z"/>
<path d="M3130 1220 c0 -27 5 -50 10 -50 6 0 10 17 10 37 l0 38 25 -38 c14
-20 28 -37 30 -37 3 0 4 24 3 53 -1 45 -2 47 -5 13 l-4 -39 -25 37 c-14 20
-29 36 -34 36 -6 0 -10 -22 -10 -50z"/>
<path d="M1910 1180 c0 -5 5 -10 10 -10 6 0 10 5 10 10 0 6 -4 10 -10 10 -5 0
-10 -4 -10 -10z"/>
<path d="M2110 1180 c0 -5 5 -10 10 -10 6 0 10 5 10 10 0 6 -4 10 -10 10 -5 0
-10 -4 -10 -10z"/>
</g>
</svg>
